<svg width="93" height="93" viewBox="0 0 93 93" xmlns="http://www.w3.org/2000/svg" xmlns:xlink="http://www.w3.org/1999/xlink"><title>BD797DAC-55DC-4201-9D9A-6B083D6914CF</title><defs><path id="a" d="M0 0h93v93H0z"/><mask id="b" x="0" y="0" width="93" height="93" fill="#fff"><use xlink:href="#a"/></mask></defs><g fill="none" fill-rule="evenodd"><use stroke="#FFF" mask="url(#b)" stroke-width="12" xlink:href="#a"/><path fill="#FFF" d="M28.297 52V40.727h-3.313v4.28h-3.968v-4.28h-3.313V52h3.313v-4.36h3.968V52zM24.727 26h3.53l-3.679-11.273h-4.156L16.742 26h3.375l.586-2.242h3.438L24.727 26zm-2.336-8.672h.062l1.086 4.094h-2.234l1.086-4.094zM25.523 75.367h-4.421v-8.64h-3.313V78h7.734zM73.984 75.367h-4.64v-1.812h4.351V71.18h-4.351v-1.82h4.64v-2.633h-7.953V78h7.953zM46 40.531c-3.484 0-5.68 2.235-5.68 5.836 0 3.602 2.188 5.828 5.68 5.828 3.484 0 5.68-2.226 5.68-5.828 0-3.601-2.196-5.836-5.68-5.836zm0 2.64c1.383 0 2.305 1.243 2.305 3.196 0 1.946-.914 3.188-2.305 3.188-1.39 0-2.305-1.242-2.305-3.188 0-1.953.922-3.195 2.305-3.195zM70 40.531c-3.484 0-5.68 2.235-5.68 5.836 0 3.602 2.188 5.828 5.68 5.828 3.484 0 5.68-2.226 5.68-5.828 0-3.601-2.196-5.836-5.68-5.836zm0 2.64c1.383 0 2.305 1.243 2.305 3.196 0 1.946-.914 3.188-2.305 3.188-1.39 0-2.305-1.242-2.305-3.188 0-1.953.922-3.195 2.305-3.195z"/><circle fill="#4A4A4A" cx="46" cy="20" r="2"/><circle fill="#4A4A4A" cx="70" cy="20" r="2"/><path fill="#FFF" d="M49.484 75.367h-4.64v-1.812h4.351V71.18h-4.351v-1.82h4.64v-2.633h-7.953V78h7.953z"/></g></svg>